<mxfile host="app.diagrams.net" modified="2024-11-18T16:31:39.320Z" agent="Mozilla/5.0 (Windows NT 10.0; Win64; x64) AppleWebKit/537.36 (KHTML, like Gecko) Chrome/130.0.0.0 Safari/537.36" etag="5OFgw-nOBG4M_clXPgVq" version="24.4.8" type="github">
  <diagram id="C5RBs43oDa-KdzZeNtuy" name="Page-1">
    <mxGraphModel dx="794" dy="458" grid="1" gridSize="10" guides="1" tooltips="1" connect="1" arrows="1" fold="1" page="1" pageScale="1" pageWidth="827" pageHeight="1169" math="0" shadow="0">
      <root>
        <mxCell id="WIyWlLk6GJQsqaUBKTNV-0" />
        <mxCell id="WIyWlLk6GJQsqaUBKTNV-1" parent="WIyWlLk6GJQsqaUBKTNV-0" />
        <mxCell id="fH1EhPDfsqjf1KMEbQu0-1" value="Profile Page" style="rounded=0;whiteSpace=wrap;html=1;" vertex="1" parent="WIyWlLk6GJQsqaUBKTNV-1">
          <mxGeometry x="332" y="10" width="138" height="60" as="geometry" />
        </mxCell>
        <mxCell id="fH1EhPDfsqjf1KMEbQu0-2" value="" style="endArrow=classic;html=1;rounded=0;entryX=0.442;entryY=-0.117;entryDx=0;entryDy=0;entryPerimeter=0;edgeStyle=orthogonalEdgeStyle;" edge="1" parent="WIyWlLk6GJQsqaUBKTNV-1" target="fH1EhPDfsqjf1KMEbQu0-7">
          <mxGeometry width="50" height="50" relative="1" as="geometry">
            <mxPoint x="392" y="70" as="sourcePoint" />
            <mxPoint x="542" y="160" as="targetPoint" />
          </mxGeometry>
        </mxCell>
        <mxCell id="fH1EhPDfsqjf1KMEbQu0-3" value="" style="endArrow=classic;html=1;rounded=0;edgeStyle=orthogonalEdgeStyle;entryX=0.5;entryY=0;entryDx=0;entryDy=0;" edge="1" parent="WIyWlLk6GJQsqaUBKTNV-1" target="fH1EhPDfsqjf1KMEbQu0-5">
          <mxGeometry width="50" height="50" relative="1" as="geometry">
            <mxPoint x="392" y="70" as="sourcePoint" />
            <mxPoint x="242" y="140" as="targetPoint" />
          </mxGeometry>
        </mxCell>
        <mxCell id="fH1EhPDfsqjf1KMEbQu0-5" value="Web-Developer" style="rounded=1;whiteSpace=wrap;html=1;" vertex="1" parent="WIyWlLk6GJQsqaUBKTNV-1">
          <mxGeometry x="100" y="90" width="100" height="40" as="geometry" />
        </mxCell>
        <mxCell id="fH1EhPDfsqjf1KMEbQu0-7" value="Animator" style="rounded=1;whiteSpace=wrap;html=1;" vertex="1" parent="WIyWlLk6GJQsqaUBKTNV-1">
          <mxGeometry x="341" y="91" width="120" height="40" as="geometry" />
        </mxCell>
        <mxCell id="fH1EhPDfsqjf1KMEbQu0-11" value="" style="endArrow=classic;html=1;rounded=0;entryX=0.5;entryY=0;entryDx=0;entryDy=0;edgeStyle=orthogonalEdgeStyle;" edge="1" parent="WIyWlLk6GJQsqaUBKTNV-1" target="fH1EhPDfsqjf1KMEbQu0-6">
          <mxGeometry width="50" height="50" relative="1" as="geometry">
            <mxPoint x="391.5" y="70" as="sourcePoint" />
            <mxPoint x="392" y="140" as="targetPoint" />
          </mxGeometry>
        </mxCell>
        <mxCell id="fH1EhPDfsqjf1KMEbQu0-6" value="E-Commerce" style="rounded=1;whiteSpace=wrap;html=1;" vertex="1" parent="WIyWlLk6GJQsqaUBKTNV-1">
          <mxGeometry x="560" y="91" width="120" height="40" as="geometry" />
        </mxCell>
        <mxCell id="fH1EhPDfsqjf1KMEbQu0-13" value="Resume" style="rounded=1;whiteSpace=wrap;html=1;" vertex="1" parent="WIyWlLk6GJQsqaUBKTNV-1">
          <mxGeometry x="700" y="91" width="120" height="40" as="geometry" />
        </mxCell>
        <mxCell id="fH1EhPDfsqjf1KMEbQu0-16" style="edgeStyle=orthogonalEdgeStyle;rounded=0;orthogonalLoop=1;jettySize=auto;html=1;exitX=0.5;exitY=1;exitDx=0;exitDy=0;" edge="1" parent="WIyWlLk6GJQsqaUBKTNV-1">
          <mxGeometry relative="1" as="geometry">
            <mxPoint x="780" y="330" as="sourcePoint" />
            <mxPoint x="780" y="330" as="targetPoint" />
          </mxGeometry>
        </mxCell>
        <mxCell id="fH1EhPDfsqjf1KMEbQu0-21" value="" style="endArrow=classic;html=1;rounded=0;entryX=0.5;entryY=0;entryDx=0;entryDy=0;edgeStyle=orthogonalEdgeStyle;" edge="1" parent="WIyWlLk6GJQsqaUBKTNV-1" target="fH1EhPDfsqjf1KMEbQu0-13">
          <mxGeometry width="50" height="50" relative="1" as="geometry">
            <mxPoint x="400" y="70" as="sourcePoint" />
            <mxPoint x="500" y="190" as="targetPoint" />
          </mxGeometry>
        </mxCell>
      </root>
    </mxGraphModel>
  </diagram>
</mxfile>
